HIERARCHY
ROOT Hips
{
 OFFSET 0.000000 0.000000 0.000000
 CHANNELS 6 Xposition Yposition Zposition Yrotation Xrotation Zrotation
 JOINT Chest
 {
  OFFSET 0.000000 11.395451 -0.039534
  CHANNELS 3 Yrotation Xrotation Zrotation
  JOINT Chest2
  {
   OFFSET 0.000000 9.398669 0.071813
   CHANNELS 3 Yrotation Xrotation Zrotation
   JOINT Chest3
   {
    OFFSET 0.000000 8.489801 0.000000
    CHANNELS 3 Yrotation Xrotation Zrotation
    JOINT Chest4
    {
     OFFSET 0.000000 8.489801 0.000000
     CHANNELS 3 Yrotation Xrotation Zrotation
     JOINT Neck
     {
      OFFSET 0.000000 12.404889 0.000000
      CHANNELS 3 Yrotation Xrotation Zrotation
      JOINT Head
      {
       OFFSET 0.000000 8.903270 0.092239
       CHANNELS 3 Yrotation Xrotation Zrotation
       End Site
       {
        OFFSET 0.000000 17.592497 0.007158
       }
      }
     }
     JOINT RightCollar
     {
      OFFSET -3.196775 6.966722 0.000000
      CHANNELS 3 Yrotation Xrotation Zrotation
      JOINT RightShoulder
      {
       OFFSET -15.955896 0.000000 0.000000
       CHANNELS 3 Yrotation Xrotation Zrotation
       JOINT RightElbow
       {
        OFFSET -24.792472 0.000000 0.000000
        CHANNELS 3 Yrotation Xrotation Zrotation
        JOINT RightWrist
        {
         OFFSET -20.900115 0.000000 0.025002
         CHANNELS 3 Yrotation Xrotation Zrotation
         End Site
         {
          OFFSET -16.056692 0.000000 0.000000
         }
        }
       }
      }
     }
     JOINT LeftCollar
     {
      OFFSET 3.196775 6.966722 0.000000
      CHANNELS 3 Yrotation Xrotation Zrotation
      JOINT LeftShoulder
      {
       OFFSET 15.955896 0.000000 0.000000
       CHANNELS 3 Yrotation Xrotation Zrotation
       JOINT LeftElbow
       {
        OFFSET 24.792472 0.000000 0.000000
        CHANNELS 3 Yrotation Xrotation Zrotation
        JOINT LeftWrist
        {
         OFFSET 20.900115 0.000000 0.025002
         CHANNELS 3 Yrotation Xrotation Zrotation
         End Site
         {
          OFFSET 16.056692 0.000000 0.000000
         }
        }
       }
      }
     }
    }
   }
  }
 }
 JOINT RightHip
 {
  OFFSET -9.568995 0.193718 0.019767
  CHANNELS 3 Yrotation Xrotation Zrotation
  JOINT RightKnee
  {
   OFFSET 0.000000 -56.649296 0.015402
   CHANNELS 3 Yrotation Xrotation Zrotation
   JOINT RightAnkle
   {
    OFFSET 0.000000 -41.365147 0.021264
    CHANNELS 3 Yrotation Xrotation Zrotation
    JOINT RightToe
    {
     OFFSET 0.000000 -7.465940 17.672538
     CHANNELS 3 Yrotation Xrotation Zrotation
     End Site
     {
      OFFSET 0.000000 -1.736315 7.837145
     }
    }
   }
  }
 }
 JOINT LeftHip
 {
  OFFSET 9.568995 0.193718 0.019767
  CHANNELS 3 Yrotation Xrotation Zrotation
  JOINT LeftKnee
  {
   OFFSET 0.000000 -56.649296 0.015402
   CHANNELS 3 Yrotation Xrotation Zrotation
   JOINT LeftAnkle
   {
    OFFSET 0.000000 -41.365147 0.021264
    CHANNELS 3 Yrotation Xrotation Zrotation
    JOINT LeftToe
    {
     OFFSET 0.000000 -7.465940 17.672538
     CHANNELS 3 Yrotation Xrotation Zrotation
     End Site
     {
      OFFSET 0.000000 -1.736315 7.837145
     }
    }
   }
  }
 }
}
MOTION
Frames: 7
Frame Time: 0.016667
56.929079 105.025384 276.733835 73.602708 -1.515304 -2.727627 -3.650517 6.690056 3.083357 -1.664106 2.949047 1.420670 -1.664098 2.949035 1.420663 -1.254659 2.207932 1.073300 -4.799320 13.731075 2.338141 -9.986487 -10.315481 6.314127 6.822007 -1.662609 6.642717 2.099491 -14.808259 47.741820 36.221277 -33.636603 32.448651 -3.834503 -19.985162 7.768586 2.929838 4.431359 -4.484569 -5.968396 -23.429740 -53.974675 -23.123182 -47.514321 -50.965801 11.051071 -22.803453 8.948880 -4.881423 -10.329903 7.006440 3.595301 14.586173 -0.695828 4.778165 -3.842351 -0.483965 -0.000000 0.000000 -0.000000 9.564387 -19.701433 1.955491 12.482596 69.493204 15.365739 2.288719 -1.007270 0.630598 -2.765050 -1.770621 -6.688362
57.930598 105.172198 277.389620 73.328221 -1.494708 -2.510827 -3.455518 6.682264 2.920766 -1.575199 2.948106 1.345671 -1.575192 2.948106 1.345669 -1.187631 2.207641 1.016639 -4.838795 13.846860 2.286312 -10.029114 -10.102913 6.219538 6.833529 -1.442676 6.617287 2.699240 -15.232045 48.025101 36.171116 -33.589272 31.973570 -3.816732 -20.022552 7.844539 2.870310 4.384431 -4.404838 -5.317454 -23.390365 -54.264798 -23.486480 -47.587442 -50.722376 11.187701 -22.685233 8.871110 -3.941341 -9.777369 6.772227 3.553501 14.562168 -0.378600 4.404521 -4.461856 -0.801864 0.000000 0.000000 0.000000 9.422000 -21.292087 1.404167 11.155837 69.096709 13.945647 2.443624 -1.554185 0.811322 -2.474551 -1.013540 -6.175579
58.933941 105.297633 278.035823 72.986029 -1.438775 -2.319809 -3.265142 6.639661 2.776579 -1.488445 2.931388 1.278679 -1.488445 2.931388 1.278679 -1.122234 2.195455 0.965952 -4.873771 13.961778 2.196778 -10.048867 -9.896458 6.052467 6.809333 -1.401151 6.620726 3.280020 -15.520413 48.251943 36.038403 -33.530555 31.663825 -3.834087 -19.973319 7.881002 2.871015 4.323133 -4.353047 -4.685967 -23.304427 -54.457073 -23.703566 -47.621281 -50.641336 11.288704 -22.619110 8.791345 -3.434092 -9.196162 6.645629 3.520412 14.512412 -0.190254 4.478439 -5.069169 -1.106038 0.000000 0.000000 0.000000 8.917383 -22.706722 0.992913 9.371351 68.101370 11.842239 2.350308 -2.084813 0.897729 -2.028029 -0.746871 -5.385128
59.940753 105.396634 278.677755 72.554397 -1.338703 -2.178740 -3.071483 6.542940 2.668013 -1.400496 2.890276 1.227153 -1.400504 2.890267 1.227152 -1.055972 2.164905 0.926802 -4.912537 14.075430 2.055907 -10.056355 -9.697339 5.790818 6.725997 -1.669123 6.666178 3.793006 -15.565316 48.399750 35.759300 -33.444493 31.650148 -3.889465 -19.783363 7.845346 2.989276 4.228799 -4.358797 -4.161603 -23.163276 -54.433106 -23.644194 -47.567427 -50.846358 11.330591 -22.645116 8.692254 -3.775599 -8.546602 6.713316 3.379458 14.432996 -0.277624 5.526084 -5.663586 -1.377283 0.000000 0.000000 -0.000000 8.069474 -23.943154 0.776606 7.448471 66.455567 9.426991 1.831815 -2.729020 1.032574 -1.494418 -0.799620 -4.371804
60.949388 105.474256 279.310104 72.055276 -1.203331 -2.064533 -2.882153 6.410711 2.578184 -1.314570 2.833165 1.183881 -1.314578 2.833161 1.183882 -0.991233 2.122341 0.893834 -4.946939 14.187746 1.876813 -10.041409 -9.504996 5.456209 6.605051 -2.115178 6.740798 4.283974 -15.470300 48.506531 35.401166 -33.349019 31.799174 -3.983169 -19.507687 7.771172 3.167950 4.119934 -4.392212 -3.658091 -22.980256 -54.307330 -23.439312 -47.471987 -51.210020 11.337970 -22.723869 8.591270 -4.541287 -7.871933 6.869274 3.242525 14.325238 -0.491126 7.022273 -6.235735 -1.652374 -0.000000 -0.000000 -0.000000 6.829385 -25.003199 0.731877 5.625211 64.145980 6.915372 1.077496 -3.360560 1.041504 -0.891150 -1.305857 -3.025095
61.945236 105.524726 279.921609 71.501045 -1.050926 -1.980471 -2.676314 6.310203 2.511194 -1.221804 2.790026 1.150779 -1.221804 2.790026 1.150779 -0.921433 2.090238 0.868500 -4.972630 14.241338 1.713032 -10.021662 -9.420339 5.153237 6.510035 -2.476742 6.785009 4.793767 -15.448388 48.569303 35.136199 -33.252023 31.875211 -4.048235 -19.319447 7.715933 3.328956 4.006094 -4.415125 -3.284058 -22.775800 -54.152536 -23.297949 -47.435943 -51.505209 11.276340 -22.819240 8.501938 -4.862265 -7.309899 6.988672 3.105032 14.297561 -0.610828 8.114240 -6.817091 -1.963541 0.000000 0.000000 0.000000 5.602212 -25.877278 0.751738 3.951591 61.224041 4.631946 0.682919 -3.944171 0.941344 -0.453757 -1.534175 -1.835992
62.915322 105.545538 280.499812 70.855859 -0.884604 -1.921568 -2.428402 6.270108 2.468313 -1.111011 2.773757 1.128177 -1.111009 2.773751 1.128173 -0.838220 2.078278 0.851013 -4.993742 14.200754 1.576108 -10.012071 -9.507491 4.908366 6.464183 -2.651523 6.758510 5.346251 -15.591073 48.581833 35.050108 -33.151016 31.785879 -4.056464 -19.293361 7.700084 3.455315 3.881137 -4.412139 -3.121969 -22.538562 -53.981739 -23.299248 -47.513743 -51.642707 11.111513 -22.931465 8.429733 -4.335874 -6.937573 7.019443 3.023920 14.404048 -0.530113 8.387480 -7.419999 -2.325590 0.000000 0.000000 0.000000 4.507198 -26.570031 0.778736 2.184997 57.713200 2.511159 1.061350 -4.578351 0.797647 -0.208702 -1.132499 -1.013047
